<?xml version="1.0" encoding="UTF-8" standalone="no"?>
<!--part of the matt icon theme by sixsixfive released under CC0 (https://creativecommons.org/publicdomain/zero/1.0/) on openclipart-->
<svg xmlns="http://www.w3.org/2000/svg" xmlns:xlink="http://www.w3.org/1999/xlink" viewBox="0 0 128 128">
 <defs id="0">
  <linearGradient id="2">
   <stop id="I"/>
   <stop id="J" offset="1" stop-opacity="0"/>
  </linearGradient>
  <linearGradient id="3">
   <stop id="K" stop-color="#e6e6e6"/>
   <stop id="L" offset="1" stop-color="#dbdbdb"/>
  </linearGradient>
  <linearGradient id="4">
   <stop id="M" stop-color="#eee"/>
   <stop id="N" offset="1" stop-color="#eee" stop-opacity="0"/>
  </linearGradient>
  <linearGradient id="5">
   <stop id="O" stop-color="#555"/>
   <stop id="P" offset="1" stop-color="#323232"/>
  </linearGradient>
  <radialGradient cx="71.05" cy="39.913" r="53.36" id="6" xlink:href="#5" gradientUnits="userSpaceOnUse" gradientTransform="matrix(0.9014185,-0.4386207,0.4504555,0.9501546,-12.355158,37.058415)"/>
  <radialGradient cx="70.55" cy="-2.875" r="52.734" id="7" xlink:href="#4" gradientUnits="userSpaceOnUse" gradientTransform="matrix(1.3060475,0,0,1.013037,-19.854443,-0.8667593)"/>
  <radialGradient cx="-98.1" cy="50.891" r="27.603" id="8" xlink:href="#3" gradientUnits="userSpaceOnUse" gradientTransform="matrix(1,0,0,1.2692307,0,-16.454369)"/>
  <radialGradient cx="63.762" cy="119.67" r="48.33" id="9" xlink:href="#2" gradientUnits="userSpaceOnUse" gradientTransform="matrix(1,0,0,0.07142857,0,111.12625)"/>
 </defs>
 <g id="1">
  <path d="m 112.09083,119.67442 a 48.329018,3.4520726 0 1 1 -96.658034,0 48.329018,3.4520726 0 1 1 96.658034,0 z" transform="translate(0.2381859,4.061262)" id="A" opacity="0.372" fill="url(#9)"/>
  <path d="m 123.02095,66.489525 a 53.355679,54.054661 0 1 1 -106.711353,0 53.355679,54.054661 0 1 1 106.711353,0 z" transform="matrix(1.1245289,0,0,1.1099875,-14.340616,-9.8025415)" id="B" fill="#262626"/>
  <path d="m 123.02095,66.489525 a 53.355679,54.054661 0 1 1 -106.711353,0 53.355679,54.054661 0 1 1 106.711353,0 z" transform="matrix(1.0683024,0,0,1.0544881,-10.423581,-6.1124127)" id="C" fill="url(#6)"/>
  <path d="m 69.65625,14.5625 c -28.279459,0 -51.21875,23.241126 -51.21875,51.9375 0,28.696374 22.937778,51.90625 51.21875,51.90625 28.280972,0 51.25,-23.21137 51.25,-51.90625 0,-28.69488 -22.970541,-51.9375 -51.25,-51.9375 z" transform="matrix(1.0683024,0,0,1.0544881,-10.423581,-6.1124127)" id="D" opacity="0.302" fill="none" stroke="url(#7)" stroke-linejoin="round" stroke-linecap="round" stroke-width="3" stroke-dashoffset="30"/>
  <path d="m -67.94541,61.116238 a 27.602825,35.034354 0 1 1 -55.20565,0 27.602825,35.034354 0 1 1 55.20565,0 z" transform="matrix(1.1230735,0,0,0.8848458,170.35136,-0.4191473)" id="E" fill="#323232"/>
  <path d="m -67.94541,61.116238 a 27.602825,35.034354 0 1 1 -55.20565,0 27.602825,35.034354 0 1 1 55.20565,0 z" transform="matrix(1.014389,0,0,0.7992156,159.96675,4.8142484)" id="F" fill="#d2d2d2"/>
  <path d="m -67.94541,61.116238 a 27.602825,35.034354 0 1 1 -55.20565,0 27.602825,35.034354 0 1 1 55.20565,0 z" transform="matrix(0.9057045,0,0,0.7135854,149.58214,10.047644)" id="G" fill="url(#8)"/>
  <path d="m 70.917457,64.205607 c -2.5e-5,1.400381 -0.230856,2.693033 -0.692493,3.877958 -0.461685,1.169547 -1.169566,2.185201 -2.123643,3.046967 -0.954122,0.846381 -2.162136,1.508095 -3.624045,1.985145 -1.461945,0.47705 -3.200869,0.715575 -5.216776,0.715575 -2.000545,0 -3.739469,-0.238525 -5.216777,-0.715575 -1.461935,-0.47705 -2.677643,-1.138764 -3.647127,-1.985145 -0.954105,-0.861766 -1.661985,-1.87742 -2.123644,-3.046967 -0.461663,-1.169537 -0.692494,-2.446799 -0.692493,-3.831792 -10e-7,-1.184921 0.184663,-2.231354 0.553994,-3.139299 0.369327,-0.923311 0.861766,-1.715829 1.477318,-2.377558 0.615545,-0.6617 1.323425,-1.184916 2.123643,-1.56965 0.800208,-0.40009 1.623503,-0.669392 2.46989,-0.807908 l 0,-0.09233 c -0.907941,-0.200036 -1.723543,-0.530893 -2.446806,-0.992573 -0.723275,-0.461643 -1.338824,-1.015636 -1.846647,-1.661982 -0.507831,-0.646306 -0.900243,-1.36188 -1.177237,-2.146726 -0.261611,-0.800191 -0.392415,-1.631181 -0.392413,-2.492973 -2e-6,-1.292627 0.230829,-2.469863 0.692493,-3.531712 0.477047,-1.061793 1.169538,-1.969727 2.077477,-2.723804 0.907929,-0.754016 2.031304,-1.331092 3.37013,-1.731231 1.354198,-0.415463 2.916152,-0.62321 4.685866,-0.623243 1.892798,3.3e-5 3.524001,0.215474 4.893614,0.646326 1.384966,0.415527 2.52373,1.007993 3.416296,1.777397 0.892524,0.754078 1.554238,1.662011 1.985145,2.723804 0.430861,1.061849 0.646303,2.231391 0.646327,3.508629 -2.4e-5,0.846403 -0.138523,1.669699 -0.415496,2.46989 -0.261631,0.784846 -0.646349,1.500421 -1.154154,2.146727 -0.50785,0.646345 -1.131092,1.192644 -1.86973,1.638898 -0.723289,0.446291 -1.546585,0.76176 -2.46989,0.946407 l 0,0.09233 c 0.954082,0.153904 1.838933,0.438595 2.654555,0.854074 0.830969,0.400123 1.546544,0.931033 2.146727,1.592733 0.600136,0.64634 1.069492,1.431164 1.408068,2.354475 0.338527,0.907945 0.507803,1.938989 0.507828,3.093133 M 63.438538,49.363184 c -1.8e-5,-0.646302 -0.06927,-1.238767 -0.207748,-1.777397 -0.138516,-0.553968 -0.369346,-1.023324 -0.692493,-1.408068 -0.323179,-0.40008 -0.761757,-0.707854 -1.315735,-0.923324 -0.53862,-0.230802 -1.223418,-0.346218 -2.054395,-0.346246 -0.800226,2.8e-5 -1.469634,0.115444 -2.008228,0.346246 -0.538616,0.21547 -0.9695,0.523244 -1.292653,0.923324 -0.323172,0.384744 -0.554003,0.8541 -0.692492,1.408068 -0.138508,0.53863 -0.207757,1.131095 -0.207748,1.777397 -9e-6,0.569406 0.05385,1.131094 0.161582,1.685065 0.1231,0.554016 0.338542,1.054149 0.646326,1.500401 0.307764,0.430904 0.738648,0.784844 1.292653,1.061821 0.553982,0.277017 1.269557,0.415515 2.146726,0.415496 0.92331,1.9e-5 1.661968,-0.138479 2.215976,-0.415496 0.569367,-0.276977 1.000251,-0.638611 1.292653,-1.084904 0.292369,-0.446252 0.484728,-0.946385 0.577077,-1.500401 0.09231,-0.553971 0.138481,-1.107964 0.138499,-1.661982 m 0.761741,14.311512 c -1.8e-5,-0.661705 -0.07696,-1.300336 -0.23083,-1.915896 -0.138517,-0.615537 -0.400125,-1.154142 -0.784825,-1.615816 -0.369346,-0.477037 -0.884868,-0.85406 -1.546567,-1.131071 -0.66173,-0.292371 -1.500414,-0.438564 -2.516056,-0.438579 -0.923335,1.5e-5 -1.700465,0.146208 -2.331391,0.438579 -0.615559,0.277011 -1.115692,0.654034 -1.500401,1.131071 -0.369338,0.477063 -0.63864,1.031057 -0.807908,1.661982 -0.153895,0.61556 -0.230839,1.26958 -0.23083,1.962062 -9e-6,0.815611 0.07693,1.561963 0.23083,2.239059 0.169268,0.677111 0.446264,1.261882 0.830991,1.754315 0.400098,0.477055 0.923314,0.846384 1.56965,1.107988 0.646315,0.261612 1.454222,0.392416 2.423724,0.392412 0.969475,4e-6 1.769688,-0.1308 2.40064,-0.392412 0.630922,-0.276993 1.131055,-0.66171 1.500401,-1.154155 0.369312,-0.492433 0.623225,-1.077203 0.761742,-1.754314 0.153869,-0.692484 0.230812,-1.454225 0.23083,-2.285225" transform="scale(1.064047,0.9398081)" id="H" fill="#323232"/>
 </g>
</svg>
